Music_PalletTown_Ch1_sub_0:
	octave 4
	D_ 4
	octave 3
	G_ 4
	rest 2
	octave 4
	G_ 4
	E_ 2
	D_ 4
	octave 3
	G_ 4
	rest 2
	octave 4
	D_ 4
	C_ 2
	octave 3
	B_ 2
	B_ 2
	octave 4
	C_ 2
	D_ 2
	octave 3
	G_ 4
	A_ 4
	
	endchannel
Music_PalletTown_Ch1::
	tempo 160
	vibrato 0, 0, 0
	duty 0
	notetype 12, 12, 0
	callchannel Music_PalletTown_Ch1_sub_0
	B_ 12
	rest 4
	callchannel Music_PalletTown_Ch1_sub_0
	G_ 12
	rest 4
	octave 4
	E_ 4
	octave 3
	A_ 4
	rest 2
	octave 4
	G_ 4
	F# 2
	F# 2
	E_ 2
	E_ 2
	F# 2
	E_ 4
	rest 4
	E_ 4
	octave 3
	G_ 4
	rest 2
	octave 4
	F# 4
	E_ 2
	E_ 2
	D_ 2
	D_ 2
	E_ 2
	D_ 6
	rest 2
	D_ 4
	octave 3
	G_ 4
	rest 2
	octave 4
	G_ 4
	E_ 2
	D_ 4
	octave 3
	G_ 4
	octave 4
	D_ 2
	D_ 2
	C_ 2
	octave 3
	B_ 2
	B_ 2
	octave 4
	C_ 2
	D_ 2
	octave 3
	G_ 4
	A_ 4
	rest 2
	B_ 2
	octave 4
	C_ 2
	D_ 2
	octave 3
	G_ 4
	A_ 4
	G_ 4
	loopchannel 0, Music_PalletTown_Ch1
	endchannel
Music_PalletTown_Ch2_sub_0:
	octave 5
	D_ 4
	octave 4
	G_ 4
	rest 2
	octave 5
	G_ 4
	E_ 2
	D_ 4
	octave 4
	G_ 4
	rest 2
	octave 5
	D_ 4
	C_ 2
	octave 4
	B_ 2
	B_ 2
	octave 5
	C_ 2
	D_ 2
	octave 4
	G_ 4
	A_ 4
	endchannel
Music_PalletTown_Ch2::
	vibrato 0, 0, 0
	duty 0
	notetype 12, 12, 0
	callchannel Music_PalletTown_Ch2_sub_0
	B_ 12
	rest 4
	callchannel Music_PalletTown_Ch2_sub_0
	G_ 12
	rest 4
	octave 5
	E_ 4
	octave 4
	A_ 4
	rest 2
	octave 5
	G_ 4
	F# 2
	F# 2
	E_ 2
	E_ 2
	F# 2
	E_ 4
	rest 4
	E_ 4
	octave 4
	G_ 4
	rest 2
	octave 5
	F# 4
	E_ 2
	E_ 2
	D_ 2
	D_ 2
	E_ 2
	D_ 6
	rest 2
	D_ 4
	octave 4
	G_ 4
	rest 2
	octave 5
	G_ 4
	E_ 2
	D_ 4
	octave 4
	G_ 4
	octave 5
	D_ 2
	D_ 2
	C_ 2
	octave 4
	B_ 2
	B_ 2
	octave 5
	C_ 2
	D_ 2
	octave 4
	G_ 4
	A_ 4
	rest 2
	B_ 2
	octave 5
	C_ 2
	D_ 2
	octave 4
	G_ 4
	A_ 4
	G_ 4
	loopchannel 0, Music_PalletTown_Ch2
	endchannel
Music_PalletTown_Ch3_sub_0:
	G_ 6
	E_ 6
	F# 4
	G_ 6
	A_ 6
	G_ 4
	E_ 6
	F# 6
	endchannel
Music_PalletTown_Ch3::
	vibrato 0, 0, 0
	notetype 12, 1, 0
	octave 4
	callchannel Music_PalletTown_Ch3_sub_0
	E_ 4
	G_ 6
	E_ 6
	D_ 4
	callchannel Music_PalletTown_Ch3_sub_0
	A_ 4
	G_ 6
	E_ 6
	D_ 4
	C_ 8
	D_ 8
	G_ 8
	E_ 4
	D_ 4
	C_ 8
	D_ 8
	G_ 8
	A_ 4
	G_ 4
	E_ 8
	A_ 8
	E_ 8
	G_ 8
	F# 8
	E_ 8
	E_ 8
	F# 8
	endchannel
